HIERARCHY
ROOT ui
{
	 OFFSET 0 0 0
	 CHANNELS 3 XPosition YPosition Z Position
	 EndSite
	 {
	 OFFSET 0 -1 0
	 }
}
ROOT li
{
	 OFFSET 0 0 0
	 CHANNELS 3 XPosition YPosition Z Position
	 EndSite
	 {
	 OFFSET 0 -1 0
	 }
}
ROOT ul
{
	 OFFSET 0 0 0
	 CHANNELS 3 XPosition YPosition Z Position
	 EndSite
	 {
	 OFFSET 0 -1 0
	 }
}
ROOT ll
{
	 OFFSET 0 0 0
	 CHANNELS 3 XPosition YPosition Z Position
	 EndSite
	 {
	 OFFSET 0 -1 0
	 }
}
ROOT tt
{
	 OFFSET 0 0 0
	 CHANNELS 3 XPosition YPosition Z Position
	 EndSite
	 {
	 OFFSET 0 -1 0
	 }
}
ROOT tb
{
	 OFFSET 0 0 0
	 CHANNELS 3 XPosition YPosition Z Position
	 EndSite
	 {
	 OFFSET 0 -1 0
	 }
}
ROOT td
{
	 OFFSET 0 0 0
	 CHANNELS 3 XPosition YPosition Z Position
	 EndSite
	 {
	 OFFSET 0 -1 0
	 }
}
ROOT v
{
	 OFFSET 0 0 0
	 CHANNELS 3 XPosition YPosition Z Position
	 EndSite
	 {
	 OFFSET 0 -1 0
	 }
}
ROOT bn
{
	 OFFSET 0 0 0
	 CHANNELS 3 XPosition YPosition Z Position
	 EndSite
	 {
	 OFFSET 0 -1 0
	 }
}
MOTION
Frames: 16
Frame Time: 0.002
0.02777915954589844	-0.0011051050424575805	0		0.5096513671875	-2.435353271484375	0		-0.9554434204101563	0.11941603088378906	0		-0.6478668212890625	-2.509680908203125	0		2.6755	-0.35366650390625	0		4.10856689453125	-0.4991705322265625	0		5.34965869140625	-0.3370658264160156	0		5.9659306640625	0.45453662109375	0		-0.301269775390625	5.87520556640625	0		
-0.03587137222290039	-0.0010459630489349366	0		0.4609556274414062	-2.439397216796875	0		-1.0330263671875	0.12957528686523437	0		-0.630790283203125	-2.5481533203125	0		2.694878173828125	-0.3491783142089844	0		4.13487060546875	-0.5057393493652343	0		5.36187890625	-0.35654928588867185	0		5.97022216796875	0.4450998840332031	0		-0.30187078857421873	5.87584912109375	0		
0.04651201629638672	0.0010557260513305664	0		0.5152742919921875	-2.44411328125	0		-0.9576617431640625	0.12873126220703124	0		-0.63660400390625	-2.5724619140625	0		2.69617431640625	-0.35955917358398437	0		4.13633837890625	-0.4901319274902344	0		5.37440869140625	-0.3320230712890625	0		5.96554443359375	0.4377335205078125	0		-0.3024534606933594	5.87650439453125	0		
-0.04704948425292969	0.009338497161865234	0		0.4915586853027344	-2.45629931640625	0		-0.9582708740234375	0.12940345764160155	0		-0.6203880615234375	-2.59490478515625	0		2.7434404296875	-0.37723504638671873	0		4.14957080078125	-0.5125929565429688	0		5.38073046875	-0.34144610595703123	0		5.95999755859375	0.4473836364746094	0		-0.30301675415039064	5.87717138671875	0		
0.04129024505615234	-5.783929824829102E-4	0		0.5408790283203125	-2.4659609375	0		-0.958861572265625	0.130086669921875	0		-0.6442870483398437	-2.637070068359375	0		2.717739501953125	-0.39241531372070315	0		4.1810673828125	-0.4981651306152344	0		5.39808349609375	-0.3489329833984375	0		5.9544697265625	0.45704315185546873	0		-0.303560302734375	5.87784912109375	0		
-0.045320602416992185	-0.005320531845092773	0		0.4902200927734375	-2.474947265625	0		-0.9634597778320313	0.12680595397949218	0		-0.5821233520507813	-2.672799560546875	0		2.762989013671875	-0.4180597839355469	0		4.15851806640625	-0.4933689880371094	0		5.39954248046875	-0.343305419921875	0		5.95873388671875	0.43264505004882814	0		-0.3050771484375	5.87954296875	0		
0.04016498947143555	7.972099781036377E-4	0		0.5255725708007812	-2.485499755859375	0		-0.959984619140625	0.13147901916503907	0		-0.6488770751953125	-2.69866162109375	0		2.717300537109375	-0.4370901794433594	0		4.15891455078125	-0.4997185363769531	0		5.4018876953125	-0.3576768798828125	0		5.96323193359375	0.4402533874511719	0		-0.3046004943847656	5.87723046875	0		
-0.03137081909179688	9.691879749298096E-4	0		0.5369811401367187	-2.490886474609375	0		-0.9514609985351562	0.14012408447265626	0		-0.5686924438476563	-2.73749951171875	0		2.743672119140625	-0.45059503173828125	0		4.18028564453125	-0.5132017211914063	0		5.42131494140625	-0.3631553955078125	0		5.97070458984375	0.4408487548828125	0		-0.27295684814453125	5.89671630859375	0		
0.039126728057861326	0.002196146011352539	0		0.5464338989257812	-2.493255615234375	0		-0.9669871826171875	0.1379339599609375	0		-0.5893613891601562	-2.75765869140625	0		2.768986328125	-0.47608782958984375	0		4.1808544921875	-0.5005392150878907	0		5.4298056640625	-0.36255426025390625	0		5.96625390625	0.4495308837890625	0		-0.28947842407226565	5.88852783203125	0		
-0.01435621166229248	0.003255850076675415	0		0.5498309326171875	-2.507581298828125	0		-0.9724367065429688	0.1436792449951172	0		-0.554161376953125	-2.801189697265625	0		2.758311279296875	-0.5033356018066406	0		4.16632666015625	-0.50577099609375	0		5.43236669921875	-0.35490792846679686	0		5.96567236328125	0.43519244384765626	0		-0.27094677734375	5.885107421875	0		
-0.01689157485961914	-0.007024701118469238	0		0.5183392333984375	-2.50867138671875	0		-0.9728973999023437	0.14439166259765626	0		-0.58787646484375	-2.835258056640625	0		2.761591064453125	-0.5406749877929687	0		4.1727470703125	-0.5221407470703125	0		5.44681591796875	-0.36733880615234377	0		5.95226806640625	0.44394384765625	0		-0.3063937072753906	5.8820498046875	0		
-0.02230390167236328	-0.002286513090133667	0		0.5178829956054688	-2.50797021484375	0		-0.9633425903320313	0.14403570556640624	0		-0.5565302734375	-2.863763671875	0		2.70995458984375	-0.5686459350585937	0		4.194216796875	-0.5346117553710937	0		5.4393017578125	-0.3776224365234375	0		5.96577099609375	0.435514404296875	0		-0.3058133850097656	5.87975	0		
0.037327491760253906	0.005012207984924316	0		0.5154381713867188	-2.50925830078125	0		-0.96067529296875	0.15672389221191407	0		-0.5861785888671875	-2.8948623046875	0		2.71136181640625	-0.5939752807617188	0		4.187966796875	-0.5088986511230469	0		5.43991259765625	-0.3729630126953125	0		5.96041357421875	0.4442090759277344	0		-0.30618746948242187	5.8804541015625	0		
0.04190740585327148	6.766880154609681E-4	0		0.5639520874023437	-2.52089306640625	0		-0.9660873413085938	0.15346272277832032	0		-0.5238359375	-2.9315830078125	0		2.694729248046875	-0.6291878662109375	0		4.1864287109375	-0.5302229614257813	0		5.44851123046875	-0.374362548828125	0		5.96398291015625	0.43783819580078126	0		-0.30752523803710935	5.8821611328125	0		
0.02953378677368164	-5.496609807014466E-4	0		0.5035606384277344	-2.521800048828125	0		-0.95645361328125	0.1530957336425781	0		-0.5413460083007813	-2.94977099609375	0		2.6970810546875	-0.6705342407226562	0		4.18604443359375	-0.5325612182617188	0		5.42515625	-0.372553955078125	0		5.9546259765625	0.43854708862304687	0		-0.30684823608398437	5.881849609375	0		
-0.02380887794494629	4.93692010641098E-4	0		0.5919046630859375	-2.56471728515625	0		-0.9517693481445313	0.15775567626953124	0		-0.5389832153320312	-2.989099853515625	0		2.6614697265625	-0.7086326904296875	0		4.1686357421875	-0.5407935791015624	0		5.43191845703125	-0.35595703125	0		5.96328564453125	0.4391251220703125	0		-0.30813848876953126	5.883544921875	0		
